<svg width="91" height="89" viewBox="0 0 91 89" fill="none" xmlns="http://www.w3.org/2000/svg">
    <path d="M62.9492 9.88281C62.959 7.45117 63.6133 6.70898 64.7852 5.97656C65.625 5.42969 66.2793 4.82422 66.2695 3.92578C66.2793 2.94922 65.5176 2.31445 64.5703 2.30469C63.6621 2.31445 62.8125 2.91992 62.7734 4.0625H60C60.0488 1.31836 62.0898 0 64.5898 0C67.3145 0 69.2383 1.41602 69.2383 3.82812C69.2383 5.43945 68.4082 6.45508 67.1289 7.22656C66.0254 7.88086 65.5371 8.51562 65.5273 9.88281V10.0977H62.9492V9.88281ZM62.6562 12.8711C62.6367 11.9727 63.3789 11.2402 64.2969 11.25C65.166 11.2402 65.918 11.9727 65.918 12.8711C65.918 13.7793 65.166 14.5117 64.2969 14.5117C63.3789 14.5117 62.6367 13.7793 62.6562 12.8711Z" fill="black"/>
    <path d="M5.99996 13.4815C6.8333 16.1482 9.99996 13.4815 9.99996 13.4815C11.5999 14.6815 11 21.6482 10.5 24.9815C9.7 28.5815 5.5 30.8556 3 31.1685C1.26561 31.3856 0 31.8556 0 32.6685V40.1685C0 41.3556 0.770754 42.7938 2 42.9815C6.5 43.6686 12.3333 48.9815 15 51.4815C19.4 55.4815 22.8333 65.8149 24 70.4815C25 74.6686 26.1667 80.6482 26 84.4815C24.4 88.0815 28 87.9815 30 87.4815C32 84.2815 30.088 78.9384 30.5 76.4815C31 73.5 31 72.1667 32 72C35.6 72.4 35.6667 80.8149 35.5 84.9815C33.9 87.7815 36.5 88.4815 38 88.4815C41.6 88.8815 41.5 76.9815 41 70.9815H51.5C54.3 72.5815 54.6667 80.9815 54.5 84.9815C52.5 87.7815 55.3333 88.1482 57 87.9815C60.5 87.1686 59.8333 76.9815 59 70.9815H62.5L64.5 84.1686C64 85.6686 61.5 86.6686 64 87.9815C69 89.6686 69.3333 86.9815 70 84.9815C70.8 81.3815 69.6667 61.4815 69 51.9815C75.8 54.3815 83.1667 49.9815 86 47.4815C89.6 45.4815 87.5 44.6482 86 44.4815L90 40.4815C91.2 39.2815 90.1667 38.9815 89.5 38.9815H87C87.4 37.7815 87.5 33.8149 87.5 31.9815C87.1 28.7815 86.3333 29.9815 86 30.9815C81.6 43.3815 69.5 44.8149 64 43.9815C52 43.5815 48.3333 35.8149 48 31.9815C48 23.1815 43.6667 9.31485 41.5 3.48151C39.2062 -2.69421 33 0.668587 33 3.48151V13.4815H20C20 10.6815 19 7.16855 17.5 6.48151C7.36418 1.83913 5.16663 10.8148 5.99996 13.4815Z" fill="black"/>
    <path d="M24.5 24.6686C24.5 27.7061 22.0376 30.1686 19 30.1686C15.9624 30.1686 13.5 27.7061 13.5 24.6686C13.5 21.631 15.9624 19.1686 19 19.1686C22.0376 19.1686 24.5 21.631 24.5 24.6686Z" fill="#FEFEFE"/>
    <path d="M39.5 24.6686C39.5 27.7061 37.0376 30.1686 34 30.1686C30.9624 30.1686 28.5 27.7061 28.5 24.6686C28.5 21.631 30.9624 19.1686 34 19.1686C37.0376 19.1686 39.5 21.631 39.5 24.6686Z" fill="#FEFEFE"/>
    <path d="M36.5 22.6686C36.5 24.6016 34.933 26.1686 33 26.1686C31.067 26.1686 29.5 24.6016 29.5 22.6686C29.5 20.7356 31.067 19.1686 33 19.1686C34.933 19.1686 36.5 20.7356 36.5 22.6686Z" fill="black"/>
    <path d="M21.5 22.6686C21.5 24.6016 19.933 26.1686 18 26.1686C16.067 26.1686 14.5 24.6016 14.5 22.6686C14.5 20.7356 16.067 19.1686 18 19.1686C19.933 19.1686 21.5 20.7356 21.5 22.6686Z" fill="black"/>
</svg>
