<svg width="65" height="50" viewBox="0 0 65 50" fill="none" xmlns="http://www.w3.org/2000/svg">
<path d="M30.814 12.9219C37.1398 11.7176 37.5182 9.57786 36.8402 8.33351C36.7493 8.1667 36.5607 8.08447 36.371 8.09427C32.7603 8.28067 32.3306 7.30797 32.4358 6.78399C32.9548 2.90743 38.923 2.58438 41.8422 3.55352C44.1776 4.58727 43.9521 3.20174 43.164 2.90743C39.0123 1.3568 41.4341 0.323047 43.164 0C53.5505 0.246296 57.6914 6.9671 58.6191 10.7671C58.7059 11.1227 58.6647 11.4932 58.6922 11.8582C58.8357 13.7595 61.9105 15.1419 63.854 15.7192C64.087 15.7884 64.2557 15.997 64.2599 16.24C64.359 21.8721 61.2902 23.9131 59.7063 24.2285C55.814 23.9701 52.0298 24.9823 50.6243 25.5207C54.8543 25.9888 57.9847 28.4353 59.341 29.9327C59.5879 30.2053 59.7199 30.5695 59.6703 30.934C59.3811 33.0623 57.4167 32.8291 56.2823 32.3666C56.1858 32.3272 56.0983 32.27 56.0181 32.2035C54.2266 30.7184 52.1189 29.931 51.273 29.7204C48.1592 28.4282 48.2457 29.1819 48.6781 29.7204L53.5435 33.5969C55.9994 34.2084 56.4645 35.262 56.3392 35.9969C56.2783 36.3548 56.1371 36.7204 55.8924 36.9886C55.2978 37.6399 53.8393 37.6684 52.7878 37.5516C52.4282 37.5117 52.0893 37.3731 51.7846 37.178L43.164 31.6586C41.8666 30.8833 36.3525 30.4741 33.7576 30.3664C30.4897 30.0434 17.5153 31.3356 11.3769 33.2739C6.96566 35.5998 5.86284 34.4584 5.86284 33.5969C5.34387 31.7879 12.3256 29.7204 13.9474 28.4282C15.5692 27.136 15.4532 27.033 15.9179 26.4899C18.803 23.1183 5.83845 30.3664 5.21412 30.3664C1.29743 30.6895 2.91922 27.459 3.59233 26.8129C3.56794 26.4899 17.8397 18.7367 15.2692 19.7059C11.7054 21.0495 7.26839 21.8595 6.1872 23.2594C5.40874 24.2932 5.23851 23.2594 4.88976 22.9364C4.54102 22.6133 3.8923 23.5825 3.26797 24.2285C2.64365 24.8746 2.55433 23.324 2.2949 23.5825C1.97061 23.9055 0.348675 25.8438 0.0243166 24.8746C-0.23517 24.0993 1.64611 21.5365 2.61918 20.352C5.83845 16.1524 19.8102 14.2141 19.8102 14.2141C19.8102 14.2141 24.3269 14.157 30.814 12.9219Z" fill="black"/>
<ellipse cx="2.91902" cy="3.55378" rx="2.91902" ry="3.55378" transform="matrix(0.991143 -0.1328 0.133861 0.991 49.752 8.52844)" fill="white"/>
<ellipse cx="2.91902" cy="3.55378" rx="2.91902" ry="3.55378" transform="matrix(0.991143 -0.1328 0.133861 0.991 40.8691 10.1108)" fill="white"/>
<ellipse cx="44.8869" cy="13.568" rx="1.62179" ry="1.93828" fill="black"/>
<ellipse cx="53.3195" cy="12.2758" rx="1.62179" ry="1.93828" fill="black"/>
<g filter="url(#filter0_f_471_3233)">
<ellipse cx="32.0788" cy="46.0128" rx="29.9299" ry="1.98726" fill="#D3BDFF"/>
</g>
<defs>
<filter id="filter0_f_471_3233" x="1.09975" y="42.9763" width="61.9582" height="6.07285" filterUnits="userSpaceOnUse" color-interpolation-filters="sRGB">
<feFlood flood-opacity="0" result="BackgroundImageFix"/>
<feBlend mode="normal" in="SourceGraphic" in2="BackgroundImageFix" result="shape"/>
<feGaussianBlur stdDeviation="0.52459" result="effect1_foregroundBlur_471_3233"/>
</filter>
</defs>
</svg>
