<svg width="294" height="44" viewBox="0 0 294 44" fill="none" xmlns="http://www.w3.org/2000/svg">
<path d="M22 6L271 5.99998" stroke="#A273FF" stroke-width="2"/>
<path d="M22 6L147 5.99999" stroke="#A273FF" stroke-width="2"/>
<circle cx="28" cy="6" r="6" fill="#A273FF"/>
<circle cx="147" cy="6" r="6" fill="#A273FF"/>
<circle cx="266" cy="6" r="6" fill="#A273FF"/>
<path d="M11.3672 28.1201V35.166H9.97559V28.1201H11.3672ZM0.74707 31.7676C0.754395 29.9658 2.23389 28.7134 4.24805 28.7207C6.25488 28.7134 7.73438 29.9658 7.73438 31.7676C7.73438 33.562 6.25488 34.8145 4.24805 34.7998C2.23389 34.8145 0.754395 33.562 0.74707 31.7676ZM2.10938 31.7676C2.10205 32.9028 3.00293 33.6572 4.24805 33.6572C5.47852 33.6572 6.37207 32.9028 6.37207 31.7676C6.37207 30.647 5.47852 29.8853 4.24805 29.8926C3.00293 29.8853 2.10205 30.647 2.10938 31.7676ZM2.7832 41.084V35.7959H4.14551V37.2754H9.99023V35.7959H11.3672V41.084H2.7832ZM4.14551 39.9414H9.99023V38.374H4.14551V39.9414ZM25.6201 29.9805V31.123H23.7598V32.793H25.6201V33.9502H23.7598V35.8691H22.3682V28.1201H23.7598V29.9805H25.6201ZM13.6523 32.002C13.6377 30.1562 15.1318 28.8818 17.1387 28.8818C19.1528 28.8818 20.625 30.1562 20.6396 32.002C20.625 33.833 19.1528 35.1147 17.1387 35.1221C15.1318 35.1147 13.6377 33.833 13.6523 32.002ZM15.0146 32.002C15 33.1665 15.9082 33.9355 17.1387 33.9502C18.3691 33.9355 19.27 33.1665 19.2773 32.002C19.27 30.8447 18.3691 30.0464 17.1387 30.0537C15.9082 30.0464 15 30.8447 15.0146 32.002ZM15.1172 38.7256C15.1172 37.1509 16.8164 36.228 19.5264 36.2207C22.207 36.228 23.877 37.1509 23.877 38.7256C23.877 40.293 22.207 41.2231 19.5264 41.2158C16.8164 41.2231 15.1172 40.293 15.1172 38.7256ZM16.5088 38.7256C16.5015 39.6191 17.6294 40.1099 19.5264 40.1025C21.4087 40.1099 22.522 39.6191 22.5146 38.7256C22.522 37.8467 21.4087 37.3413 19.5264 37.3486C17.6294 37.3413 16.5015 37.8467 16.5088 38.7256ZM40.957 28.1348V37.7441H39.5654V28.1348H40.957ZM30.1465 34.7852C32.2046 34.0234 33.4204 32.1338 33.4277 30.1562V28.8525H34.8486V30.1562C34.8413 32.0752 36.0571 33.833 38.0859 34.5361L37.3682 35.6494C35.8521 35.0854 34.7314 33.9722 34.1455 32.5513C33.5669 34.0747 32.4316 35.2905 30.8936 35.8838L30.1465 34.7852ZM32.373 40.9668V36.8359H33.7793V39.8389H41.3525V40.9668H32.373ZM47.6367 30.918C47.6367 32.4634 48.9038 33.9062 50.9033 34.4629L50.2441 35.5469C48.7207 35.1147 47.5781 34.1772 46.9775 32.9614C46.4062 34.3164 45.2637 35.3931 43.6963 35.8838L43.0371 34.8145C45.0293 34.1772 46.2598 32.6099 46.2598 30.918V30.7568H43.4033V29.6436H46.2598V28.0615H47.6514V29.6436H50.4932V30.7568H47.6367V30.918ZM45.1465 38.7842C45.1392 37.2461 46.8311 36.3745 49.585 36.3672C52.3315 36.3745 54.0161 37.2461 54.0234 38.7842C54.0161 40.3296 52.3315 41.2231 49.585 41.2158C46.8311 41.2231 45.1392 40.3296 45.1465 38.7842ZM46.5234 38.7842C46.5161 39.6338 47.6587 40.1392 49.585 40.1465C51.5112 40.1392 52.6392 39.6338 52.6465 38.7842C52.6392 37.9346 51.5112 37.4512 49.585 37.4512C47.6587 37.4512 46.5161 37.9346 46.5234 38.7842ZM50.083 32.9395V31.7969H52.5879V28.1201H53.9795V36.0742H52.5879V32.9395H50.083Z" fill="#D2D2D2"/>
<path d="M249.367 28.1201V35.166H247.976V28.1201H249.367ZM238.747 31.7676C238.754 29.9658 240.234 28.7134 242.248 28.7207C244.255 28.7134 245.734 29.9658 245.734 31.7676C245.734 33.562 244.255 34.8145 242.248 34.7998C240.234 34.8145 238.754 33.562 238.747 31.7676ZM240.109 31.7676C240.102 32.9028 241.003 33.6572 242.248 33.6572C243.479 33.6572 244.372 32.9028 244.372 31.7676C244.372 30.647 243.479 29.8853 242.248 29.8926C241.003 29.8853 240.102 30.647 240.109 31.7676ZM240.783 41.084V35.7959H242.146V37.2754H247.99V35.7959H249.367V41.084H240.783ZM242.146 39.9414H247.99V38.374H242.146V39.9414ZM263.62 29.9805V31.123H261.76V32.793H263.62V33.9502H261.76V35.8691H260.368V28.1201H261.76V29.9805H263.62ZM251.652 32.002C251.638 30.1562 253.132 28.8818 255.139 28.8818C257.153 28.8818 258.625 30.1562 258.64 32.002C258.625 33.833 257.153 35.1147 255.139 35.1221C253.132 35.1147 251.638 33.833 251.652 32.002ZM253.015 32.002C253 33.1665 253.908 33.9355 255.139 33.9502C256.369 33.9355 257.27 33.1665 257.277 32.002C257.27 30.8447 256.369 30.0464 255.139 30.0537C253.908 30.0464 253 30.8447 253.015 32.002ZM253.117 38.7256C253.117 37.1509 254.816 36.228 257.526 36.2207C260.207 36.228 261.877 37.1509 261.877 38.7256C261.877 40.293 260.207 41.2231 257.526 41.2158C254.816 41.2231 253.117 40.293 253.117 38.7256ZM254.509 38.7256C254.501 39.6191 255.629 40.1099 257.526 40.1025C259.409 40.1099 260.522 39.6191 260.515 38.7256C260.522 37.8467 259.409 37.3413 257.526 37.3486C255.629 37.3413 254.501 37.8467 254.509 38.7256ZM278.4 28.1348V32.0312H280.275V33.1738H278.4V36.9678H277.009V28.1348H278.4ZM267.985 35.5029C269.003 35.5029 270.183 35.5029 271.413 35.4736V34.5874C269.919 34.4189 268.967 33.7158 268.981 32.6611C268.967 31.46 270.219 30.7129 272.102 30.7275C273.984 30.7129 275.214 31.46 275.222 32.6611C275.214 33.7085 274.284 34.4116 272.805 34.5874V35.4224C273.977 35.3638 275.163 35.2686 276.262 35.1074L276.379 36.1035C273.559 36.5942 270.446 36.6162 268.132 36.6162L267.985 35.5029ZM268.322 30.2881V29.248H271.413V28.0176H272.805V29.248H275.896V30.2881H268.322ZM269.626 38.667V37.583H278.4V41.2451H277.009V38.667H269.626ZM270.3 32.6611C270.3 33.2764 270.981 33.6792 272.102 33.6719C273.208 33.6792 273.896 33.2764 273.889 32.6611C273.896 32.0312 273.208 31.665 272.102 31.6797C270.981 31.665 270.3 32.0312 270.3 32.6611ZM291.979 28.1201V35.9277H290.588V32.6025H288.142V31.46H290.588V28.1201H291.979ZM281.037 34.7412C283.073 34.0308 284.326 32.2583 284.318 30.4492V30.1562H281.477V29.0283H288.552V30.1562H285.739V30.4346C285.732 32.0972 286.918 33.7158 288.903 34.3896L288.186 35.4883C286.713 34.9829 285.629 33.9282 285.058 32.6318C284.487 34.0967 283.337 35.2759 281.77 35.8545L281.037 34.7412ZM283.146 38.7695C283.139 37.2095 284.824 36.3013 287.585 36.2939C290.332 36.3013 292.016 37.2095 292.023 38.7695C292.016 40.3296 290.332 41.2378 287.585 41.2451C284.824 41.2378 283.139 40.3296 283.146 38.7695ZM284.523 38.7695C284.516 39.6558 285.659 40.1611 287.585 40.1465C289.497 40.1611 290.639 39.6558 290.646 38.7695C290.639 37.876 289.497 37.3706 287.585 37.3779C285.659 37.3706 284.516 37.876 284.523 38.7695Z" fill="#A273FF"/>
<path d="M130.762 28.0615V35.166H129.122V28.0615H130.762ZM119.966 31.7529C119.966 29.9146 121.49 28.6401 123.541 28.6475C125.584 28.6401 127.107 29.9146 127.1 31.7529C127.107 33.562 125.584 34.8364 123.541 34.8291C121.49 34.8364 119.966 33.562 119.966 31.7529ZM121.563 31.7529C121.556 32.8149 122.383 33.4888 123.541 33.4961C124.676 33.4888 125.503 32.8149 125.503 31.7529C125.503 30.6909 124.676 30.0024 123.541 30.0098C122.383 30.0024 121.556 30.6909 121.563 31.7529ZM122.002 41.1426V35.7812H123.614V37.1436H129.136V35.7812H130.762V41.1426H122.002ZM123.614 39.8242H129.136V38.418H123.614V39.8242ZM144.942 29.834V31.167H143.14V32.6758H144.942V34.0234H143.14V35.8398H141.514V28.0615H143.14V29.834H144.942ZM132.842 31.9873C132.835 30.1196 134.373 28.8086 136.417 28.8232C138.453 28.8086 139.976 30.1196 139.991 31.9873C139.976 33.8477 138.453 35.1587 136.417 35.166C134.373 35.1587 132.835 33.8477 132.842 31.9873ZM134.351 38.7256C134.351 37.1069 136.094 36.1548 138.833 36.1475C141.551 36.1548 143.265 37.1069 143.272 38.7256C143.265 40.3296 141.551 41.2891 138.833 41.2891C136.094 41.2891 134.351 40.3296 134.351 38.7256ZM134.439 31.9873C134.432 33.0859 135.274 33.7817 136.417 33.7891C137.544 33.7817 138.387 33.0859 138.394 31.9873C138.387 30.896 137.544 30.1782 136.417 30.1855C135.274 30.1782 134.432 30.896 134.439 31.9873ZM135.977 38.7256C135.977 39.5605 137.017 39.9854 138.833 39.9854C140.643 39.9854 141.661 39.5605 141.661 38.7256C141.661 37.8979 140.643 37.4512 138.833 37.4512C137.017 37.4512 135.977 37.8979 135.977 38.7256ZM160.25 28.0762V35.5615H158.609V28.0762H160.25ZM149.219 34.0088C151.365 33.3276 152.479 31.6064 152.471 29.8633V28.5742H154.156V29.8633C154.148 31.5552 155.276 33.1299 157.349 33.7891L156.558 35.0342C155.027 34.5581 153.929 33.584 153.328 32.3169C152.735 33.6792 151.614 34.7705 150.025 35.2979L149.219 34.0088ZM151.46 41.1426V36.2207H160.25V41.1426H151.46ZM153.072 39.8242H158.653V37.5098H153.072V39.8242ZM166.915 31.2402C166.9 33.606 168.086 35.9937 170.137 36.9824L169.141 38.2861C167.706 37.561 166.673 36.1621 166.109 34.4775C165.53 36.2793 164.446 37.7734 162.93 38.5352L161.934 37.2314C164.065 36.2207 165.281 33.6865 165.289 31.2402V29.1309H166.915V31.2402ZM170.928 41.3037V28.0615H172.554V33.2471H174.59V34.6387H172.554V41.3037H170.928Z" fill="#CDCDCD"/>
</svg>
