<svg width="210" height="161" viewBox="0 0 210 161" fill="none" xmlns="http://www.w3.org/2000/svg">
    <path d="M100.38 42.2654C120.737 38.374 122.187 31.4972 120.09 27.4071C119.759 26.7612 119.039 26.4478 118.314 26.4835C106.707 27.0542 105.322 23.8949 105.663 22.1893C107.354 9.5097 126.796 8.45307 136.306 11.623C143.914 15.0042 143.179 10.4724 140.612 9.5097C127.087 4.43786 134.976 1.05663 140.612 0C174.189 0.799459 187.73 22.4546 190.887 34.9318C191.229 36.2792 191.055 37.6963 191.225 39.0757C191.967 45.0764 201.558 49.4556 207.798 51.3505C208.684 51.6195 209.325 52.4098 209.337 53.3357C209.578 71.5925 199.639 78.2197 194.5 79.2475C181.82 78.4022 169.493 81.713 164.914 83.4741C178.489 84.9824 188.588 92.7704 193.109 97.684C194.056 98.7129 194.563 100.097 194.339 101.477C193.264 108.07 187.08 107.368 183.427 105.898C183.058 105.75 182.725 105.53 182.418 105.277C176.597 100.455 169.773 97.8966 167.028 97.2103C156.884 92.9838 157.166 95.4492 158.575 97.2103L174.424 109.89C182.108 111.811 183.809 115.065 183.571 117.45C183.433 118.823 182.876 120.247 181.87 121.192C179.883 123.06 175.55 123.188 172.272 122.858C170.896 122.719 169.599 122.185 168.435 121.437L140.612 103.55C136.385 101.014 118.422 99.6758 109.969 99.3236C99.3236 98.2669 57.0582 102.493 37.0616 108.833C22.6914 116.441 19.0989 112.708 19.0989 109.89C17.4082 103.973 40.1521 97.2103 45.4352 92.9838C50.7184 88.7572 50.3404 88.4206 51.8545 86.644C61.253 75.616 19.0194 99.3236 16.9856 99.3236C4.22653 100.38 9.5097 89.8139 11.7024 87.7006C11.623 86.644 58.1149 61.2848 49.7412 64.4547C38.1317 68.8495 23.6776 71.4989 20.1555 76.0776C17.6196 79.4589 17.065 76.0776 15.929 75.021C14.7929 73.9644 12.6796 77.1343 10.6458 79.2475C8.61198 81.3608 8.321 76.289 7.47589 77.1343C6.4195 78.1909 1.13585 84.5307 0.0792141 81.3608C-0.766093 78.8249 5.36238 70.4422 8.53228 66.5679C19.0194 52.8317 64.5339 46.4919 64.5339 46.4919C64.5339 46.4919 79.2475 46.305 100.38 42.2654Z" fill="black"/>
    <ellipse cx="173.047" cy="38.1463" rx="9.5097" ry="11.623" transform="rotate(-7.66204 173.047 38.1463)" fill="white"/>
    <ellipse cx="144.11" cy="43.3222" rx="9.5097" ry="11.623" transform="rotate(-7.66204 144.11 43.3222)" fill="white"/>
    <ellipse cx="146.224" cy="44.3786" rx="5.28317" ry="6.3398" fill="black"/>
    <ellipse cx="173.696" cy="40.1521" rx="5.28317" ry="6.3398" fill="black"/>
    <g filter="url(#filter0_f_314_499)">
        <ellipse cx="104.5" cy="150.5" rx="97.5" ry="6.5" fill="#D3BDFF"/>
    </g>
    <defs>
        <filter id="filter0_f_314_499" x="3" y="140" width="203" height="21" filterUnits="userSpaceOnUse" color-interpolation-filters="sRGB">
            <feFlood flood-opacity="0" result="BackgroundImageFix"/>
            <feBlend mode="normal" in="SourceGraphic" in2="BackgroundImageFix" result="shape"/>
            <feGaussianBlur stdDeviation="2" result="effect1_foregroundBlur_314_499"/>
        </filter>
    </defs>
</svg>
