<svg width="31" height="23" viewBox="0 0 31 23" fill="none" xmlns="http://www.w3.org/2000/svg">
    <ellipse cx="3.15867" cy="3.89052" rx="3.15867" ry="3.89052" transform="matrix(0.891643 -0.452739 0.581443 0.813587 0 9.66138)" fill="#634EC0"/>
    <ellipse cx="3.0429" cy="4.37035" rx="3.0429" ry="4.37035" transform="matrix(0.97986 -0.199684 0.275713 0.96124 7.72205 1.70056)" fill="#634EC0"/>
    <ellipse cx="2.81585" cy="3.70905" rx="2.81585" ry="3.70905" transform="matrix(0.975431 0.220306 -0.30295 0.953006 19.0344 1.5658)" fill="#634EC0"/>
    <ellipse cx="2.82792" cy="3.52311" rx="2.82792" ry="3.52311" transform="matrix(0.875652 0.482943 -0.613196 0.789931 26.0477 8.04871)" fill="#634EC0"/>
    <path d="M21.2254 15.8242C17.1234 7.6124 11.8249 12.4026 9.68847 15.8242C6.09921 22.3072 12.4659 22.4872 16.0979 21.7669C23.7892 23.9279 22.7209 18.7055 21.2254 15.8242Z" fill="#634EC0" stroke="#634EC0" stroke-width="1.07513"/>
</svg>
