<svg width="61" height="59" viewBox="0 0 61 59" fill="none" xmlns="http://www.w3.org/2000/svg">
<path d="M3.99935 8.98627C4.55482 10.7638 6.66561 8.98627 6.66561 8.98627C7.73209 9.78614 7.33218 14.4299 6.99891 16.6518C6.46566 19.0514 3.6661 20.5672 1.99969 20.7758C0.843606 20.9205 0 21.2338 0 21.7756V26.7749C0 27.5661 0.513756 28.5248 1.33313 28.6499C4.33266 29.1079 8.22094 32.6493 9.99844 34.3157C12.9313 36.9819 15.2199 43.8697 15.9975 46.9804C16.6641 49.7713 17.4417 53.7571 17.3306 56.3123C16.2641 58.7119 18.6638 58.6452 19.9969 58.3119C21.33 56.1789 20.0555 52.6174 20.3302 50.9798C20.6634 48.9924 20.6634 48.1036 21.33 47.9925C23.7296 48.2592 23.7741 53.8682 23.663 56.6455C22.5965 58.5119 24.3295 58.9785 25.3294 58.9785C27.729 59.2451 27.6624 51.313 27.3291 47.3137H34.328C36.1944 48.3802 36.4388 53.9793 36.3277 56.6455C34.9945 58.5119 36.8831 58.7563 37.9941 58.6452C40.3271 58.1034 39.8827 51.313 39.3272 47.3137H41.6602L42.9933 56.1037C42.66 57.1035 40.9936 57.7701 42.66 58.6452C45.9928 59.7698 46.215 57.9787 46.6594 56.6455C47.1927 54.2459 46.4372 40.9813 45.9928 34.649C50.5255 36.2487 55.4358 33.3158 57.3244 31.6494C59.724 30.3163 58.3242 29.7608 57.3244 29.6497L59.9907 26.9835C60.7905 26.1836 60.1017 25.9836 59.6574 25.9836H57.991C58.2576 25.1838 58.3242 22.5397 58.3242 21.3177C58.0576 19.1847 57.5466 19.9846 57.3244 20.6511C54.3915 28.9165 46.3261 29.8719 42.66 29.3165C34.6613 29.0498 32.2172 23.8729 31.995 21.3177C31.995 15.4519 29.1066 6.20893 27.6624 2.32064C26.1334 -1.79586 21.9966 0.445655 21.9966 2.32064V8.98627H13.3313C13.3313 7.11989 12.6647 4.77829 11.6648 4.32033C4.90869 1.2259 3.44388 7.20877 3.99935 8.98627Z" fill="black"/>
<path d="M16.3308 16.4432C16.3308 18.4679 14.6894 20.1093 12.6647 20.1093C10.64 20.1093 8.9986 18.4679 8.9986 16.4432C8.9986 14.4184 10.64 12.7771 12.6647 12.7771C14.6894 12.7771 16.3308 14.4184 16.3308 16.4432Z" fill="#FEFEFE"/>
<path d="M26.3292 16.4432C26.3292 18.4679 24.6879 20.1093 22.6631 20.1093C20.6384 20.1093 18.997 18.4679 18.997 16.4432C18.997 14.4184 20.6384 12.7771 22.6631 12.7771C24.6879 12.7771 26.3292 14.4184 26.3292 16.4432Z" fill="#FEFEFE"/>
<path d="M24.3295 15.11C24.3295 16.3985 23.285 17.443 21.9966 17.443C20.7081 17.443 19.6636 16.3985 19.6636 15.11C19.6636 13.8216 20.7081 12.7771 21.9966 12.7771C23.285 12.7771 24.3295 13.8216 24.3295 15.11Z" fill="black"/>
<path d="M14.3311 15.11C14.3311 16.3985 13.2866 17.443 11.9981 17.443C10.7097 17.443 9.66516 16.3985 9.66516 15.11C9.66516 13.8216 10.7097 12.7771 11.9981 12.7771C13.2866 12.7771 14.3311 13.8216 14.3311 15.11Z" fill="black"/>
</svg>
