<svg width="100" height="13" viewBox="0 0 100 13" fill="none" xmlns="http://www.w3.org/2000/svg">
<path d="M0.789642 12.4315V0.713169H5.49591C6.96991 0.713169 8.04382 0.971119 8.71765 1.48702C9.40201 1.99239 9.78103 2.66095 9.85473 3.49271C9.88632 3.74539 9.87579 4.00334 9.82315 4.26656C9.78103 4.52977 9.70207 4.78246 9.58626 5.02462C9.47044 5.25624 9.31778 5.47208 9.12826 5.67212C8.93875 5.86164 8.72291 6.00904 8.48076 6.11432C9.08088 6.39859 9.52308 6.85132 9.80736 7.47251C10.1022 8.09369 10.218 8.73593 10.1548 9.39923C10.0495 10.3784 9.65995 11.1312 8.98613 11.6576C8.32283 12.1735 7.3542 12.4315 6.08024 12.4315H0.789642ZM3.5376 3.19264V5.11937H6.00128C6.34872 5.09831 6.6172 5.00356 6.80671 4.8351C7.00676 4.66664 7.10678 4.43502 7.10678 4.14022C7.10678 3.85594 7.00149 3.62958 6.79092 3.46112C6.58035 3.28214 6.28555 3.19264 5.90652 3.19264H3.5376ZM3.5376 7.50409V9.95198H5.96969C6.51718 9.96251 6.89094 9.8467 7.09099 9.60454C7.29103 9.36238 7.39105 9.06758 7.39105 8.72014C7.39105 8.40428 7.27524 8.12528 7.04361 7.88312C6.81198 7.63043 6.41189 7.50409 5.84335 7.50409H3.5376ZM17.7014 12.7315C16.817 12.7315 16.0274 12.5894 15.3325 12.3051C14.6376 12.0208 14.0533 11.6155 13.5795 11.0891C13.0952 10.5626 12.7267 9.9204 12.474 9.16234C12.2318 8.39375 12.1108 7.53568 12.1108 6.58811C12.1108 5.64054 12.2318 4.78772 12.474 4.02967C12.7267 3.27161 13.0952 2.62937 13.5795 2.10294C14.0533 1.57651 14.6376 1.17116 15.3325 0.886891C16.0274 0.592091 16.817 0.444691 17.7014 0.444691C18.5858 0.444691 19.3755 0.592091 20.0704 0.886891C20.7758 1.17116 21.3706 1.57651 21.8549 2.10294C22.3393 2.62937 22.7078 3.27161 22.9604 4.02967C23.2237 4.78772 23.3553 5.64054 23.3553 6.58811C23.3553 7.53568 23.2237 8.39375 22.9604 9.16234C22.7078 9.9204 22.3393 10.5626 21.8549 11.0891C21.3706 11.6155 20.7758 12.0208 20.0704 12.3051C19.3755 12.5894 18.5858 12.7315 17.7014 12.7315ZM17.733 10.0467C18.5542 10.0467 19.2228 9.73615 19.7387 9.11496C20.2546 8.49378 20.5126 7.65149 20.5126 6.58811C20.5126 6.09326 20.4389 5.63527 20.2915 5.21413C20.1546 4.79299 19.9651 4.42449 19.7229 4.10863C19.4808 3.8033 19.186 3.56641 18.8385 3.39795C18.5016 3.21897 18.1331 3.12947 17.733 3.12947C17.3224 3.12947 16.9434 3.21897 16.5959 3.39795C16.259 3.56641 15.9695 3.8033 15.7273 4.10863C15.4852 4.42449 15.2957 4.79299 15.1588 5.21413C15.0219 5.63527 14.9535 6.09326 14.9535 6.58811C14.9535 7.65149 15.2062 8.49378 15.7115 9.11496C16.2274 9.73615 16.9013 10.0467 17.733 10.0467ZM30.3892 12.4315L28.273 4.8351H28.194L28.1309 12.4315H25.2408L25.9673 0.713169H29.2048L31.6843 8.84648H31.7632L34.2585 0.713169H37.496L38.2225 12.4315H35.3324L35.2692 4.8351H35.1903L33.074 12.4315H30.3892ZM44.1771 12.4315L42.0609 4.8351H41.9819L41.9188 12.4315H39.0287L39.7551 0.713169H42.9927L45.4722 8.84648H45.5511L48.0464 0.713169H51.2839L52.0104 12.4315H49.1203L49.0571 4.8351H48.9782L46.8619 12.4315H44.1771ZM62.1501 3.20844H55.9751V5.34047L61.8501 5.32468V7.77257H55.9751V9.93619H59.718C60.0023 9.93619 60.255 9.93619 60.4761 9.93619C60.7077 9.92566 60.9236 9.90987 61.1236 9.88881C61.3131 9.87828 61.4974 9.86249 61.6764 9.84143C61.8553 9.82037 62.0396 9.79405 62.2291 9.76247V12.2104C61.8817 12.3051 61.4237 12.3683 60.8551 12.3999C60.2971 12.4209 59.797 12.4315 59.3548 12.4315H53.2114V0.713169H62.1501V3.20844ZM69.9535 12.7315C69.0691 12.7315 68.2795 12.5894 67.5846 12.3051C66.8897 12.0208 66.3054 11.6155 65.8316 11.0891C65.3473 10.5626 64.9788 9.9204 64.7261 9.16234C64.4839 8.39375 64.3629 7.53568 64.3629 6.58811C64.3629 5.64054 64.4839 4.78772 64.7261 4.02967C64.9788 3.27161 65.3473 2.62937 65.8316 2.10294C66.3054 1.57651 66.8897 1.17116 67.5846 0.886891C68.2795 0.592091 69.0691 0.444691 69.9535 0.444691C70.8379 0.444691 71.6276 0.592091 72.3225 0.886891C73.0279 1.17116 73.6227 1.57651 74.107 2.10294C74.5914 2.62937 74.9599 3.27161 75.2125 4.02967C75.4758 4.78772 75.6074 5.64054 75.6074 6.58811C75.6074 7.53568 75.4758 8.39375 75.2125 9.16234C74.9599 9.9204 74.5914 10.5626 74.107 11.0891C73.6227 11.6155 73.0279 12.0208 72.3225 12.3051C71.6276 12.5894 70.8379 12.7315 69.9535 12.7315ZM69.9851 10.0467C70.8063 10.0467 71.4749 9.73615 71.9908 9.11496C72.5067 8.49378 72.7647 7.65149 72.7647 6.58811C72.7647 6.09326 72.691 5.63527 72.5436 5.21413C72.4067 4.79299 72.2172 4.42449 71.975 4.10863C71.7329 3.8033 71.4381 3.56641 71.0906 3.39795C70.7537 3.21897 70.3852 3.12947 69.9851 3.12947C69.5745 3.12947 69.1955 3.21897 68.848 3.39795C68.5111 3.56641 68.2216 3.8033 67.9794 4.10863C67.7373 4.42449 67.5478 4.79299 67.4109 5.21413C67.274 5.63527 67.2056 6.09326 67.2056 6.58811C67.2056 7.65149 67.4583 8.49378 67.9636 9.11496C68.4795 9.73615 69.1534 10.0467 69.9851 10.0467ZM80.6672 5.15096V12.4315H77.8877V0.713169H80.6199L84.7418 7.75678V0.713169H87.5213V12.4315H84.9313L80.6672 5.15096ZM95.5115 9.73088C95.7116 9.59401 95.8748 9.37291 96.0011 9.06758C96.1274 8.76225 96.1906 8.45166 96.1906 8.1358H93.7743V5.7195H99.1281V6.87238C99.107 7.23035 99.086 7.57253 99.0649 7.89891C99.0439 8.2253 99.007 8.54115 98.9544 8.84648C98.9123 9.15181 98.8386 9.44661 98.7333 9.73088C98.6385 10.0152 98.5016 10.2994 98.3227 10.5837C97.9436 11.2259 97.4856 11.705 96.9487 12.0208C96.4117 12.3367 95.8695 12.5473 95.322 12.6526C95.0167 12.7157 94.685 12.7526 94.3271 12.7631C93.9691 12.7736 93.6111 12.7578 93.2531 12.7157C92.8846 12.6631 92.5319 12.5894 92.195 12.4946C91.8581 12.3893 91.5581 12.2577 91.2948 12.0998C90.4315 11.5629 89.784 10.8416 89.3523 9.93619C88.9312 9.03073 88.7206 7.91471 88.7206 6.58811C88.7206 5.28256 88.9575 4.17707 89.4313 3.27161C89.9051 2.35562 90.5736 1.62915 91.437 1.0922C91.6897 0.934269 91.9792 0.807926 92.3056 0.713169C92.632 0.607883 92.9689 0.534183 93.3163 0.492069C93.6638 0.449955 94.0112 0.434162 94.3586 0.444691C94.7061 0.444691 95.0325 0.476277 95.3378 0.539448C95.8432 0.644733 96.3433 0.85004 96.8381 1.15537C97.3435 1.4607 97.8699 1.90816 98.4174 2.49776L96.7118 4.26656C96.1854 3.69802 95.6484 3.32952 95.1009 3.16106C94.5534 2.9926 94.0112 2.99787 93.4742 3.17685C92.8109 3.39795 92.3108 3.79804 91.9739 4.37711C91.637 4.95618 91.4686 5.69318 91.4686 6.58811C91.4686 7.50409 91.6423 8.27268 91.9897 8.89386C92.3372 9.50452 92.7952 9.88881 93.3637 10.0467C93.6796 10.1415 94.0375 10.1678 94.4376 10.1257C94.8482 10.0836 95.2062 9.95198 95.5115 9.73088Z" fill="#9888DC"/>
</svg>
