<svg width="26" height="18" viewBox="0 0 26 18" fill="none" xmlns="http://www.w3.org/2000/svg">
<ellipse cx="2.88205" cy="3.5498" rx="2.88205" ry="3.5498" transform="matrix(0.891643 -0.452739 0.581443 0.813587 0 6.84546)" fill="#A4A3E1"/>
<ellipse cx="2.59887" cy="3.40933" rx="2.59887" ry="3.40933" transform="matrix(0.97986 -0.199684 0.275713 0.96124 6.63379 1.03809)" fill="#A4A3E1"/>
<ellipse cx="2.19666" cy="2.89345" rx="2.19666" ry="2.89345" transform="matrix(0.975431 0.220306 -0.30295 0.953006 15.7532 0.843018)" fill="#A4A3E1"/>
<ellipse cx="2.20608" cy="2.74839" rx="2.20608" ry="2.74839" transform="matrix(0.875652 0.482943 -0.613196 0.789931 21.3706 5.90039)" fill="#A4A3E1"/>
<path d="M17.462 11.9658C14.262 5.55977 10.1287 9.29664 8.46203 11.9658C5.66203 17.0233 10.6287 17.1637 13.462 16.6017C19.462 18.2875 18.6287 14.2135 17.462 11.9658Z" fill="#A4A3E1" stroke="#A4A3E1"/>
</svg>
