<svg width="18" height="15" viewBox="0 0 18 15" fill="none" xmlns="http://www.w3.org/2000/svg">
<path d="M17.5041 4.84489C17.5041 10.3149 9.39362 14.7425 9.04823 14.9254C8.95719 14.9744 8.85543 15 8.75206 15C8.64869 15 8.54693 14.9744 8.4559 14.9254C8.11051 14.7425 0 10.3149 0 4.84489C0.00144779 3.56039 0.512355 2.32892 1.42064 1.42064C2.32892 0.512355 3.56039 0.00144779 4.84489 0C5.96682 0 6.99167 0.335435 7.80808 0.934083C8.34534 1.32804 9.15879 1.32804 9.69605 0.934082C10.5125 0.335435 11.5373 0 12.6592 0C13.9437 0.00144779 15.1752 0.512355 16.0835 1.42064C16.9918 2.32892 17.5027 3.56039 17.5041 4.84489Z" fill="#A4A3E1"/>
</svg>
