<svg width="28" height="34" viewBox="0 0 28 34" fill="none" xmlns="http://www.w3.org/2000/svg">
<path d="M4.524 31.156C2.34 31.156 0.696 29.464 0.696 26.608C0.696 23.764 2.364 22.036 4.596 22.036C5.664 22.036 6.504 22.564 7.008 23.128L6.408 23.848C5.952 23.356 5.364 23.008 4.608 23.008C2.94 23.008 1.836 24.376 1.836 26.572C1.836 28.792 2.892 30.184 4.572 30.184C5.412 30.184 6.048 29.812 6.612 29.2L7.224 29.896C6.528 30.7 5.664 31.156 4.524 31.156ZM8.75634 31V21.448H9.84834V24.064L9.81234 25.408C10.4123 24.808 11.0843 24.316 11.9723 24.316C13.3403 24.316 13.9643 25.204 13.9643 26.872V31H12.8723V27.016C12.8723 25.792 12.5003 25.276 11.6363 25.276C10.9643 25.276 10.5083 25.612 9.84834 26.272V31H8.75634ZM17.5454 31.156C16.4534 31.156 15.6374 30.484 15.6374 29.308C15.6374 27.892 16.8734 27.184 19.6454 26.872C19.6454 26.032 19.3694 25.228 18.3014 25.228C17.5454 25.228 16.8614 25.576 16.3454 25.924L15.9134 25.168C16.5134 24.784 17.4374 24.316 18.4814 24.316C20.0654 24.316 20.7374 25.384 20.7374 26.992V31H19.8374L19.7414 30.22H19.7054C19.0814 30.736 18.3494 31.156 17.5454 31.156ZM17.8574 30.28C18.4934 30.28 19.0094 29.98 19.6454 29.416V27.592C17.4494 27.856 16.7054 28.396 16.7054 29.236C16.7054 29.98 17.2094 30.28 17.8574 30.28ZM24.6951 31.156C23.3031 31.156 22.8351 30.28 22.8351 28.984V25.372H21.8631V24.544L22.8831 24.484L23.0151 22.648H23.9271V24.484H25.6911V25.372H23.9271V29.008C23.9271 29.812 24.1791 30.268 24.9351 30.268C25.1631 30.268 25.4631 30.184 25.6791 30.1L25.8951 30.916C25.5231 31.036 25.0911 31.156 24.6951 31.156Z" fill="#696969"/>
<path fill-rule="evenodd" clip-rule="evenodd" d="M3.48729 12.3468C2.54619 11.0966 1.99996 9.60703 1.99996 8.008C1.99996 3.5853 6.17863 0 11.3333 0C16.4879 0 20.6666 3.5853 20.6666 8.008C20.6666 12.4307 16.4879 16.016 11.3333 16.016C9.58657 16.016 7.95193 15.6043 6.55397 14.8878L3.81621 15.7577C3.33463 15.9107 2.824 15.4855 2.92357 15.0144L3.48729 12.3468Z" fill="#626262"/>
<mask id="path-3-outside-1_103_336" maskUnits="userSpaceOnUse" x="10.6666" y="4.15991" width="17" height="16" fill="black">
<rect fill="white" x="10.6666" y="4.15991" width="17" height="16"/>
<path fill-rule="evenodd" clip-rule="evenodd" d="M24.9376 14.979C25.6098 14.086 26 13.022 26 11.8799C26 8.72084 23.0152 6.15991 19.3333 6.15991C15.6514 6.15991 12.6666 8.72084 12.6666 11.8799C12.6666 15.039 15.6514 17.5999 19.3333 17.5999C20.5809 17.5999 21.7486 17.3058 22.7471 16.7941L24.3812 17.3133C24.8628 17.4663 25.3734 17.0411 25.2738 16.5699L24.9376 14.979Z"/>
</mask>
<path fill-rule="evenodd" clip-rule="evenodd" d="M24.9376 14.979C25.6098 14.086 26 13.022 26 11.8799C26 8.72084 23.0152 6.15991 19.3333 6.15991C15.6514 6.15991 12.6666 8.72084 12.6666 11.8799C12.6666 15.039 15.6514 17.5999 19.3333 17.5999C20.5809 17.5999 21.7486 17.3058 22.7471 16.7941L24.3812 17.3133C24.8628 17.4663 25.3734 17.0411 25.2738 16.5699L24.9376 14.979Z" fill="#999999"/>
<path d="M24.9376 14.979L23.6593 14.0168L23.2218 14.598L23.3722 15.3098L24.9376 14.979ZM22.7471 16.7941L23.2316 15.2692L22.6037 15.0697L22.0173 15.3702L22.7471 16.7941ZM24.3812 17.3133L24.8657 15.7884L24.8657 15.7884L24.3812 17.3133ZM25.2738 16.5699L26.8393 16.2391V16.2391L25.2738 16.5699ZM24.4 11.8799C24.4 12.6461 24.1407 13.3772 23.6593 14.0168L26.216 15.9412C27.0789 14.7948 27.6 13.398 27.6 11.8799H24.4ZM19.3333 7.75991C22.3702 7.75991 24.4 9.82563 24.4 11.8799H27.6C27.6 7.61605 23.6602 4.55991 19.3333 4.55991V7.75991ZM14.2666 11.8799C14.2666 9.82563 16.2964 7.75991 19.3333 7.75991V4.55991C15.0064 4.55991 11.0666 7.61605 11.0666 11.8799H14.2666ZM19.3333 15.9999C16.2964 15.9999 14.2666 13.9342 14.2666 11.8799H11.0666C11.0666 16.1438 15.0064 19.1999 19.3333 19.1999V15.9999ZM22.0173 15.3702C21.247 15.765 20.3298 15.9999 19.3333 15.9999V19.1999C20.8321 19.1999 22.2502 18.8467 23.4768 18.218L22.0173 15.3702ZM24.8657 15.7884L23.2316 15.2692L22.2626 18.319L23.8967 18.8382L24.8657 15.7884ZM23.7084 16.9008C23.613 16.4491 23.8318 16.1042 24.0216 15.9462C24.2113 15.7882 24.5222 15.6793 24.8657 15.7884L23.8967 18.8382C24.7218 19.1003 25.5288 18.8553 26.0693 18.4052C26.6099 17.955 27.0343 17.1619 26.8393 16.2391L23.7084 16.9008ZM23.3722 15.3098L23.7084 16.9008L26.8393 16.2391L26.5031 14.6482L23.3722 15.3098Z" fill="white" mask="url(#path-3-outside-1_103_336)"/>
</svg>
