<svg width="27" height="34" viewBox="0 0 27 34" fill="none" xmlns="http://www.w3.org/2000/svg">
<path d="M4.524 31.156C2.34 31.156 0.696 29.464 0.696 26.608C0.696 23.764 2.364 22.036 4.596 22.036C5.664 22.036 6.504 22.564 7.008 23.128L6.408 23.848C5.952 23.356 5.364 23.008 4.608 23.008C2.94 23.008 1.836 24.376 1.836 26.572C1.836 28.792 2.892 30.184 4.572 30.184C5.412 30.184 6.048 29.812 6.612 29.2L7.224 29.896C6.528 30.7 5.664 31.156 4.524 31.156ZM8.75634 31V21.448H9.84834V24.064L9.81234 25.408C10.4123 24.808 11.0843 24.316 11.9723 24.316C13.3403 24.316 13.9643 25.204 13.9643 26.872V31H12.8723V27.016C12.8723 25.792 12.5003 25.276 11.6363 25.276C10.9643 25.276 10.5083 25.612 9.84834 26.272V31H8.75634ZM17.5454 31.156C16.4534 31.156 15.6374 30.484 15.6374 29.308C15.6374 27.892 16.8734 27.184 19.6454 26.872C19.6454 26.032 19.3694 25.228 18.3014 25.228C17.5454 25.228 16.8614 25.576 16.3454 25.924L15.9134 25.168C16.5134 24.784 17.4374 24.316 18.4814 24.316C20.0654 24.316 20.7374 25.384 20.7374 26.992V31H19.8374L19.7414 30.22H19.7054C19.0814 30.736 18.3494 31.156 17.5454 31.156ZM17.8574 30.28C18.4934 30.28 19.0094 29.98 19.6454 29.416V27.592C17.4494 27.856 16.7054 28.396 16.7054 29.236C16.7054 29.98 17.2094 30.28 17.8574 30.28ZM24.6951 31.156C23.3031 31.156 22.8351 30.28 22.8351 28.984V25.372H21.8631V24.544L22.8831 24.484L23.0151 22.648H23.9271V24.484H25.6911V25.372H23.9271V29.008C23.9271 29.812 24.1791 30.268 24.9351 30.268C25.1631 30.268 25.4631 30.184 25.6791 30.1L25.8951 30.916C25.5231 31.036 25.0911 31.156 24.6951 31.156Z" fill="#696969"/>
<path fill-rule="evenodd" clip-rule="evenodd" d="M24.9376 14.979C25.6098 14.086 26 13.022 26 11.8799C26 8.72084 23.0152 6.15991 19.3333 6.15991C15.6514 6.15991 12.6666 8.72084 12.6666 11.8799C12.6666 15.039 15.6514 17.5999 19.3333 17.5999C20.5809 17.5999 21.7486 17.3058 22.7471 16.7941L24.3812 17.3133C24.8628 17.4663 25.3734 17.0411 25.2738 16.5699L24.9376 14.979Z" fill="#999999"/>
<path fill-rule="evenodd" clip-rule="evenodd" d="M2 8.008C2 9.60703 2.54623 11.0966 3.48733 12.3468L2.92361 15.0144C2.82405 15.4855 3.33467 15.9107 3.81625 15.7577L6.55401 14.8878C7.95197 15.6043 9.58662 16.016 11.3333 16.016C11.6564 16.016 11.9757 16.0019 12.2903 15.9744C11.4726 14.8221 11 13.4598 11 12C11 7.85786 14.8056 4.5 19.5 4.5C19.576 4.5 19.6518 4.50088 19.7273 4.50263C18.2122 1.83674 15.0228 0 11.3333 0C6.17868 0 2 3.5853 2 8.008Z" fill="#626262"/>
</svg>
