<svg width="32" height="33" viewBox="0 0 32 33" fill="none" xmlns="http://www.w3.org/2000/svg">
<path d="M6.309 23.746H7.101V31.693H6.309V27.589H5.283V31.288H4.509V23.917H5.283V26.905H6.309V23.746ZM0.612 29.776V24.709H3.555V25.375H1.431V29.083C2.394 29.074 3.132 29.038 3.969 28.858L4.05 29.551C3.096 29.74 2.277 29.776 1.143 29.776H0.612ZM13.5362 23.755H14.3642V27.085H15.5522V27.778H14.3642V31.702H13.5362V23.755ZM8.10921 29.542C8.73021 29.542 9.45021 29.542 10.2062 29.515V28.705C9.31521 28.579 8.73021 28.03 8.73021 27.256C8.73021 26.365 9.50421 25.78 10.6202 25.78C11.7362 25.78 12.5012 26.365 12.5012 27.256C12.5012 28.03 11.9252 28.579 11.0342 28.705V29.488C11.7272 29.452 12.4202 29.398 13.0682 29.308L13.1402 29.911C11.4392 30.217 9.59421 30.226 8.22621 30.226L8.10921 29.542ZM8.25321 25.348V24.691H10.2062V23.773H11.0342V24.691H12.9782V25.348H8.25321ZM9.51321 27.256C9.51321 27.76 9.94521 28.093 10.6202 28.093C11.2772 28.093 11.7272 27.76 11.7272 27.256C11.7272 26.752 11.2772 26.41 10.6202 26.41C9.94521 26.41 9.51321 26.752 9.51321 27.256ZM21.3754 23.755H22.1944V26.977H23.4544V27.67H22.1944V31.702H21.3754V23.755ZM16.0204 25.672V24.997H17.9554V23.863H18.8014V24.997H20.6914V25.672H16.0204ZM16.4434 28.111C16.4434 27.031 17.2624 26.275 18.3784 26.275C19.5124 26.275 20.3404 27.031 20.3404 28.111C20.3404 29.2 19.5124 29.956 18.3784 29.956C17.2624 29.956 16.4434 29.2 16.4434 28.111ZM17.2264 28.111C17.2264 28.804 17.7214 29.272 18.3784 29.272C19.0534 29.272 19.5574 28.804 19.5574 28.111C19.5574 27.436 19.0534 26.959 18.3784 26.959C17.7214 26.959 17.2264 27.436 17.2264 28.111ZM29.6556 23.746H30.4836V31.693H29.6556V23.746ZM24.0216 29.587C26.1186 28.57 27.1446 27.13 27.3066 25.267H24.3996V24.592H28.1436C28.1436 26.923 27.1536 28.93 24.4626 30.244L24.0216 29.587Z" fill="#9C9C9C"/>
<path fill-rule="evenodd" clip-rule="evenodd" d="M26.9375 14.979C27.6097 14.086 27.9999 13.022 27.9999 11.8799C27.9999 8.72084 25.0151 6.15991 21.3332 6.15991C17.6513 6.15991 14.6665 8.72084 14.6665 11.8799C14.6665 15.039 17.6513 17.5999 21.3332 17.5999C22.5808 17.5999 23.7485 17.3058 24.747 16.7941L26.3811 17.3133C26.8627 17.4663 27.3733 17.0411 27.2737 16.5699L26.9375 14.979Z" fill="#999999"/>
<path fill-rule="evenodd" clip-rule="evenodd" d="M4 8.008C4 9.60703 4.54623 11.0966 5.48733 12.3468L4.92361 15.0144C4.82405 15.4855 5.33467 15.9107 5.81625 15.7577L8.55401 14.8878C9.95197 15.6043 11.5866 16.016 13.3333 16.016C13.6564 16.016 13.9757 16.0019 14.2903 15.9744C13.4726 14.8221 13 13.4598 13 12C13 7.85786 16.8056 4.5 21.5 4.5C21.576 4.5 21.6518 4.50088 21.7273 4.50263C20.2122 1.83674 17.0228 0 13.3333 0C8.17868 0 4 3.5853 4 8.008Z" fill="#C3C3C3"/>
</svg>
