<svg width="23" height="33" viewBox="0 0 23 33" fill="none" xmlns="http://www.w3.org/2000/svg">
<path d="M1.2 30V21.192H2.316V29.052H6.156V30H1.2ZM7.61963 30V23.484H8.71163V30H7.61963ZM8.17163 22.14C7.73963 22.14 7.43963 21.852 7.43963 21.408C7.43963 20.988 7.73963 20.7 8.17163 20.7C8.60363 20.7 8.90363 20.988 8.90363 21.408C8.90363 21.852 8.60363 22.14 8.17163 22.14ZM10.9243 30V20.448H12.0043V26.928H12.0403L14.8123 23.484H16.0363L13.8643 26.112L16.3243 30H15.1363L13.2283 26.856L12.0043 28.284V30H10.9243ZM19.939 30.156C18.211 30.156 16.819 28.896 16.819 26.748C16.819 24.636 18.247 23.316 19.759 23.316C21.415 23.316 22.351 24.516 22.351 26.376C22.351 26.616 22.327 26.844 22.303 27H17.911C17.983 28.392 18.835 29.28 20.071 29.28C20.707 29.28 21.223 29.088 21.703 28.764L22.099 29.484C21.523 29.856 20.827 30.156 19.939 30.156ZM17.899 26.208H21.391C21.391 24.9 20.791 24.192 19.771 24.192C18.847 24.192 18.031 24.936 17.899 26.208Z" fill="#696969"/>
<path d="M20.5041 4.84489C20.5041 10.3149 12.3936 14.7425 12.0482 14.9254C11.9572 14.9744 11.8554 15 11.7521 15C11.6487 15 11.5469 14.9744 11.4559 14.9254C11.1105 14.7425 3 10.3149 3 4.84489C3.00145 3.56039 3.51236 2.32892 4.42064 1.42064C5.32892 0.512355 6.56039 0.00144779 7.84489 0C8.96682 0 9.99166 0.335435 10.8081 0.934083C11.3453 1.32804 12.1588 1.32804 12.6961 0.934083C13.5125 0.335435 14.5373 0 15.6592 0C16.9437 0.00144779 18.1752 0.512355 19.0835 1.42064C19.9918 2.32892 20.5027 3.56039 20.5041 4.84489Z" fill="#C2C2C2"/>
</svg>
