<svg width="24" height="32" viewBox="0 0 24 32" fill="none" xmlns="http://www.w3.org/2000/svg">
<path d="M3.501 25.113H4.32V25.995H7.524V26.661H0.333V25.995H3.501V25.113ZM0.693 24.96C2.097 24.87 3.222 24.321 3.357 23.628H0.99V22.989H6.867V23.628H4.482C4.617 24.321 5.751 24.87 7.155 24.96L6.885 25.59C5.499 25.473 4.338 24.96 3.915 24.168C3.492 24.96 2.349 25.473 0.963 25.59L0.693 24.96ZM0.999 28.29V27.651H3.51V26.958H4.329V27.651H6.849V28.29H0.999ZM1.53 29.676C1.53 29.001 2.385 28.632 3.915 28.632C5.445 28.632 6.309 29.001 6.309 29.676C6.309 30.369 5.445 30.729 3.915 30.729C2.385 30.729 1.53 30.369 1.53 29.676ZM2.367 29.676C2.367 30.018 2.916 30.171 3.915 30.171C4.914 30.171 5.463 30.018 5.463 29.676C5.463 29.361 4.914 29.199 3.915 29.199C2.916 29.199 2.367 29.361 2.367 29.676ZM10.3142 23.349C11.4842 23.349 12.3212 24.42 12.3212 26.13C12.3212 27.831 11.4842 28.92 10.3142 28.92C9.13521 28.92 8.28921 27.831 8.28921 26.13C8.28921 24.42 9.13521 23.349 10.3142 23.349ZM9.09021 26.13C9.09021 27.399 9.58521 28.182 10.3142 28.182C11.0342 28.182 11.5292 27.399 11.5292 26.13C11.5292 24.87 11.0342 24.096 10.3142 24.096C9.58521 24.096 9.09021 24.87 9.09021 26.13ZM13.5002 30.702V22.755H14.3282V25.878H15.5792V26.571H14.3282V30.702H13.5002ZM16.0654 29.028H17.7844V26.931C17.1364 26.571 16.7494 26.004 16.7494 25.302C16.7494 24.042 17.9644 23.232 19.6474 23.232C21.3484 23.232 22.5634 24.042 22.5634 25.302C22.5634 26.004 22.1764 26.571 21.5284 26.931V29.028H23.2564V29.712H16.0654V29.028ZM17.5504 25.302C17.5504 26.157 18.4234 26.706 19.6474 26.706C20.8804 26.706 21.7444 26.157 21.7444 25.302C21.7444 24.438 20.8804 23.88 19.6474 23.88C18.4234 23.88 17.5504 24.438 17.5504 25.302ZM18.6034 29.028H20.7094V27.237C20.3854 27.309 20.0254 27.354 19.6474 27.354C19.2694 27.354 18.9184 27.318 18.6034 27.237V29.028Z" fill="#9C9C9C"/>
<path d="M19.9202 4.84489C19.9202 10.3149 11.892 14.7425 11.5501 14.9254C11.46 14.9744 11.3593 15 11.257 15C11.1546 15 11.0539 14.9744 10.9638 14.9254C10.6219 14.7425 2.59375 10.3149 2.59375 4.84489C2.59518 3.56039 3.1009 2.32892 3.99996 1.42064C4.89902 0.512355 6.118 0.00144779 7.38946 0C8.49245 0 9.50065 0.330894 10.3061 0.921921C10.8465 1.31849 11.6674 1.31849 12.2079 0.921921C13.0133 0.330894 14.0215 0 15.1245 0C16.3959 0.00144779 17.6149 0.512355 18.514 1.42064C19.413 2.32892 19.9187 3.56039 19.9202 4.84489Z" fill="#C2C2C2"/>
</svg>
