<svg width="28" height="33" viewBox="0 0 28 33" fill="none" xmlns="http://www.w3.org/2000/svg">
<ellipse cx="2.88205" cy="3.5498" rx="2.88205" ry="3.5498" transform="matrix(0.891643 -0.452739 0.581443 0.813587 2 6.84546)" fill="#C2C2C2"/>
<ellipse cx="2.59887" cy="3.40933" rx="2.59887" ry="3.40933" transform="matrix(0.97986 -0.199684 0.275713 0.96124 8.63379 1.03796)" fill="#C2C2C2"/>
<ellipse cx="2.19666" cy="2.89345" rx="2.19666" ry="2.89345" transform="matrix(0.975431 0.220306 -0.30295 0.953006 17.7532 0.842896)" fill="#C2C2C2"/>
<ellipse cx="2.20608" cy="2.74839" rx="2.20608" ry="2.74839" transform="matrix(0.875652 0.482943 -0.613196 0.789931 23.3706 5.90027)" fill="#C2C2C2"/>
<path d="M19.462 11.9659C16.262 5.55989 12.1287 9.29676 10.462 11.9659C7.66203 17.0234 12.6287 17.1638 15.462 16.6018C21.462 18.2877 20.6287 14.2137 19.462 11.9659Z" fill="#C2C2C2" stroke="#C2C2C2"/>
<path d="M1.2 30V21.204H2.532L4.224 25.92C4.44 26.52 4.644 27.132 4.86 27.756H4.908C5.124 27.132 5.316 26.52 5.52 25.92L7.188 21.204H8.532V30H7.5V25.14C7.5 24.372 7.584 23.316 7.644 22.536H7.584L6.888 24.54L5.22 29.124H4.476L2.808 24.54L2.112 22.536H2.064C2.124 23.316 2.208 24.372 2.208 25.14V30H1.2ZM13.4703 30.168C11.7303 30.168 10.3503 28.896 10.3503 26.76C10.3503 24.636 11.7783 23.328 13.2783 23.328C14.9343 23.328 15.8703 24.516 15.8703 26.388C15.8703 26.616 15.8583 26.844 15.8223 27.012H11.4303C11.5143 28.392 12.3543 29.292 13.6023 29.292C14.2263 29.292 14.7423 29.088 15.2223 28.764L15.6183 29.496C15.0423 29.868 14.3583 30.168 13.4703 30.168ZM11.4183 26.22H14.9103C14.9103 24.912 14.3223 24.204 13.2903 24.204C12.3783 24.204 11.5623 24.936 11.4183 26.22ZM20.1148 30.168C18.3748 30.168 16.9948 28.896 16.9948 26.76C16.9948 24.636 18.4228 23.328 19.9228 23.328C21.5788 23.328 22.5148 24.516 22.5148 26.388C22.5148 26.616 22.5028 26.844 22.4668 27.012H18.0748C18.1588 28.392 18.9988 29.292 20.2468 29.292C20.8708 29.292 21.3868 29.088 21.8668 28.764L22.2628 29.496C21.6868 29.868 21.0028 30.168 20.1148 30.168ZM18.0628 26.22H21.5548C21.5548 24.912 20.9668 24.204 19.9348 24.204C19.0228 24.204 18.2068 24.936 18.0628 26.22ZM26.0073 30.168C24.6153 30.168 24.1593 29.292 24.1593 27.996V24.372H23.1873V23.556L24.2073 23.484L24.3273 21.648H25.2513V23.484H27.0153V24.372H25.2513V28.02C25.2513 28.812 25.5033 29.28 26.2593 29.28C26.4873 29.28 26.7873 29.184 26.9913 29.1L27.2073 29.916C26.8473 30.048 26.4153 30.168 26.0073 30.168Z" fill="#696969"/>
</svg>
