<svg width="26" height="33" viewBox="0 0 26 33" fill="none" xmlns="http://www.w3.org/2000/svg">
<ellipse cx="2.88205" cy="3.5498" rx="2.88205" ry="3.5498" transform="matrix(0.891643 -0.452739 0.581443 0.813587 0 6.84546)" fill="#C2C2C2"/>
<ellipse cx="2.59887" cy="3.40933" rx="2.59887" ry="3.40933" transform="matrix(0.97986 -0.199684 0.275713 0.96124 6.63379 1.03796)" fill="#C2C2C2"/>
<ellipse cx="2.19666" cy="2.89345" rx="2.19666" ry="2.89345" transform="matrix(0.975431 0.220306 -0.30295 0.953006 15.7532 0.842896)" fill="#C2C2C2"/>
<ellipse cx="2.20608" cy="2.74839" rx="2.20608" ry="2.74839" transform="matrix(0.875652 0.482943 -0.613196 0.789931 21.3706 5.90027)" fill="#C2C2C2"/>
<path d="M17.462 11.9659C14.262 5.55989 10.1287 9.29676 8.46203 11.9659C5.66203 17.0234 10.6287 17.1638 13.462 16.6018C19.462 18.2877 18.6287 14.2137 17.462 11.9659Z" fill="#C2C2C2" stroke="#C2C2C2"/>
<path d="M10.206 29.317H15.642V31.594H10.206V29.317ZM9.333 28.759V28.111H12.51V27.553C11.106 27.49 10.332 27.103 10.332 26.446C10.332 25.699 11.259 25.303 12.915 25.303C14.58 25.303 15.507 25.699 15.507 26.446C15.507 27.103 14.733 27.49 13.329 27.553V28.111H16.515V28.759H9.333ZM9.693 25.024V24.385H12.51V23.647H13.329V24.385H16.11V25.024H9.693ZM11.007 30.964H14.823V29.938H11.007V30.964ZM11.223 26.446C11.223 26.797 11.808 26.986 12.915 26.986C14.022 26.986 14.625 26.797 14.625 26.446C14.625 26.068 14.022 25.879 12.915 25.879C11.808 25.879 11.223 26.068 11.223 26.446Z" fill="#634EC0" fill-opacity="0.49"/>
</svg>
