<svg width="28" height="33" viewBox="0 0 28 33" fill="none" xmlns="http://www.w3.org/2000/svg">
<ellipse cx="2.88205" cy="3.5498" rx="2.88205" ry="3.5498" transform="matrix(0.891643 -0.452739 0.581443 0.813587 2 6.84546)" fill="#634EC0"/>
<ellipse cx="2.59887" cy="3.40933" rx="2.59887" ry="3.40933" transform="matrix(0.97986 -0.199684 0.275713 0.96124 8.63379 1.03796)" fill="#634EC0"/>
<ellipse cx="2.19666" cy="2.89345" rx="2.19666" ry="2.89345" transform="matrix(0.975431 0.220306 -0.30295 0.953006 17.7532 0.842896)" fill="#634EC0"/>
<ellipse cx="2.20608" cy="2.74839" rx="2.20608" ry="2.74839" transform="matrix(0.875652 0.482943 -0.613196 0.789931 23.3706 5.90027)" fill="#634EC0"/>
<path d="M19.462 11.9659C16.262 5.55989 12.1287 9.29676 10.462 11.9659C7.66203 17.0234 12.6287 17.1638 15.462 16.6018C21.462 18.2877 20.6287 14.2137 19.462 11.9659Z" fill="#634EC0" stroke="#A4A3E1"/>
<path d="M1.2 30V21.192H2.544L4.236 25.908C4.44 26.52 4.644 27.132 4.86 27.744H4.92C5.124 27.132 5.316 26.52 5.52 25.908L7.2 21.192H8.544V30H7.5V25.128C7.5 24.372 7.584 23.304 7.644 22.536H7.596L6.9 24.54L5.232 29.112H4.488L2.82 24.54L2.124 22.536H2.076C2.124 23.304 2.208 24.372 2.208 25.128V30H1.2ZM13.4703 30.156C11.7423 30.156 10.3503 28.896 10.3503 26.748C10.3503 24.636 11.7783 23.316 13.2903 23.316C14.9463 23.316 15.8823 24.516 15.8823 26.376C15.8823 26.616 15.8583 26.844 15.8343 27H11.4423C11.5143 28.392 12.3663 29.28 13.6023 29.28C14.2383 29.28 14.7543 29.088 15.2343 28.764L15.6303 29.484C15.0543 29.856 14.3583 30.156 13.4703 30.156ZM11.4303 26.208H14.9223C14.9223 24.9 14.3223 24.192 13.3023 24.192C12.3783 24.192 11.5623 24.936 11.4303 26.208ZM20.1148 30.156C18.3868 30.156 16.9948 28.896 16.9948 26.748C16.9948 24.636 18.4228 23.316 19.9348 23.316C21.5908 23.316 22.5268 24.516 22.5268 26.376C22.5268 26.616 22.5028 26.844 22.4788 27H18.0868C18.1588 28.392 19.0108 29.28 20.2468 29.28C20.8828 29.28 21.3988 29.088 21.8788 28.764L22.2748 29.484C21.6988 29.856 21.0028 30.156 20.1148 30.156ZM18.0748 26.208H21.5668C21.5668 24.9 20.9668 24.192 19.9468 24.192C19.0228 24.192 18.2068 24.936 18.0748 26.208ZM26.0544 30.156C24.6624 30.156 24.1944 29.28 24.1944 27.984V24.372H23.2224V23.544L24.2424 23.484L24.3744 21.648H25.2864V23.484H27.0504V24.372H25.2864V28.008C25.2864 28.812 25.5384 29.268 26.2944 29.268C26.5224 29.268 26.8224 29.184 27.0384 29.1L27.2544 29.916C26.8824 30.036 26.4504 30.156 26.0544 30.156Z" fill="#634EC0"/>
</svg>
