<svg width="16" height="32" viewBox="0 0 16 32" fill="none" xmlns="http://www.w3.org/2000/svg">
<circle cx="7.85714" cy="3.85714" r="3.85714" fill="#C2C2C2"/>
<path d="M13.6529 9.00001C14.4055 9 15.0933 9.49111 15.1988 10.2363C15.8756 15.0139 11.3485 17.5714 7.63329 17.5714C3.91809 17.5714 -0.609048 15.0139 0.0677758 10.2363C0.173336 9.49111 0.861134 9 1.61372 9.00001L7.63329 9.00005L13.6529 9.00001Z" fill="#C2C2C2"/>
<path d="M2.1 28.5713V20.4973H3.332L4.883 24.8203C5.07 25.3813 5.257 25.9423 5.455 26.5033H5.51C5.697 25.9423 5.873 25.3813 6.06 24.8203L7.6 20.4973H8.832V28.5713H7.875V24.1053C7.875 23.4123 7.952 22.4333 8.007 21.7293H7.963L7.325 23.5663L5.796 27.7573H5.114L3.585 23.5663L2.947 21.7293H2.903C2.947 22.4333 3.024 23.4123 3.024 24.1053V28.5713H2.1ZM11.0378 31.1453C10.7518 31.1453 10.5208 31.1013 10.3338 31.0243L10.5318 30.2213C10.6528 30.2653 10.8288 30.3203 10.9828 30.3203C11.6648 30.3203 12.0938 29.7703 12.3358 29.0333L12.4678 28.5823L10.0698 22.5983H11.1148L12.3358 25.9203C12.5118 26.4373 12.7208 27.0533 12.9078 27.5923H12.9628C13.1278 27.0533 13.3038 26.4483 13.4688 25.9203L14.5358 22.5983H15.5148L13.2598 29.0663C12.8528 30.2433 12.2258 31.1453 11.0378 31.1453Z" fill="#696969"/>
</svg>
