<svg width="26" height="32" viewBox="0 0 26 32" fill="none" xmlns="http://www.w3.org/2000/svg">
<circle cx="12.8571" cy="3.85714" r="3.85714" fill="#C2C2C2"/>
<path d="M18.6529 9.00001C19.4055 9 20.0933 9.49111 20.1988 10.2363C20.8756 15.0139 16.3485 17.5714 12.6333 17.5714C8.91809 17.5714 4.39095 15.0139 5.06778 10.2363C5.17334 9.49111 5.86113 9 6.61372 9.00001L12.6333 9.00005L18.6529 9.00001Z" fill="#C2C2C2"/>
<path d="M6.291 22.3173H7.083V30.2643H6.291V26.1963H5.274V29.8593H4.491V22.4883H5.274V25.5123H6.291V22.3173ZM0.702 28.2303V23.2623H1.53V27.5193C2.25 27.5013 3.051 27.4473 3.951 27.2763L4.041 27.9963C2.97 28.1943 2.061 28.2303 1.224 28.2303H0.702ZM14.5304 24.3423H16.0154V22.3263H16.8434V27.0513H16.0154V25.0263H14.5304V24.3423ZM10.2914 26.3403C11.5064 25.9083 12.2624 24.8373 12.2624 23.7303V23.5503H10.5434V22.8753H14.7824V23.5503H13.0904V23.7213C13.0904 24.7293 13.8104 25.7103 14.9894 26.1333L14.5844 26.7813C13.7024 26.4663 13.0454 25.8363 12.7034 25.0533C12.3614 25.9443 11.6684 26.6643 10.7144 27.0063L10.2914 26.3403ZM11.5514 28.7703C11.5514 27.8343 12.5684 27.2853 14.2154 27.2853C15.8624 27.2853 16.8704 27.8343 16.8704 28.7703C16.8704 29.7153 15.8624 30.2643 14.2154 30.2643C12.5684 30.2643 11.5514 29.7153 11.5514 28.7703ZM12.3614 28.7703C12.3614 29.3103 13.0544 29.6163 14.2154 29.6163C15.3674 29.6163 16.0514 29.3103 16.0514 28.7703C16.0514 28.2213 15.3674 27.9153 14.2154 27.9153C13.0544 27.9153 12.3614 28.2213 12.3614 28.7703ZM18.1396 28.5993H21.3076V26.9523H18.9676V22.8663H19.7956V24.2433H23.6656V22.8663H24.4936V26.9523H22.1266V28.5993H25.3306V29.2833H18.1396V28.5993ZM19.7956 26.2773H23.6656V24.9183H19.7956V26.2773Z" fill="#9C9C9C"/>
</svg>
